<svg xmlns="http://www.w3.org/2000/svg" viewBox="0 0 512 512" role="img" aria-labelledby="title desc">
  <title id="title">py-sccdc sticker</title>
  <desc id="desc">OmicVerse repository hex sticker for py-sccdc.</desc>
  <defs>
    <linearGradient id="bg" x1="112" y1="90" x2="398" y2="430" gradientUnits="userSpaceOnUse">
      <stop offset="0" stop-color="#050706"/>
      <stop offset=".58" stop-color="#020403"/>
      <stop offset="1" stop-color="#000000"/>
    </linearGradient>
  </defs>
  <polygon points="256,34 450,146 450,368 256,480 62,368 62,146" fill="#000000" opacity=".34"/>
  <polygon points="256,22 458,139 458,373 256,490 54,373 54,139" fill="url(#bg)" stroke="#0B0F0A" stroke-width="19" stroke-linejoin="round"/>
  <polygon points="256,22 458,139 458,373 256,490 54,373 54,139" fill="none" stroke="#E8FFE0" stroke-width="12" stroke-linejoin="round"/>
  <g opacity=".22" stroke="#3FD36B" stroke-width="2.2">
    <path d="M112 166h288M100 222h312M100 278h312M112 334h288"/>
    <path d="M152 126v236M204 104v274M256 96v286M308 104v274M360 126v236"/>
  </g>
  <g id="motif">
    <circle cx="204" cy="252" r="76" fill="#32D74B" opacity=".38" stroke="#FFFFFF" stroke-width="5"/>
    <circle cx="300" cy="252" r="76" fill="#00C7BE" opacity=".38" stroke="#FFFFFF" stroke-width="5"/>
    <circle cx="252" cy="316" r="76" fill="#FFD60A" opacity=".38" stroke="#FFFFFF" stroke-width="5"/>
    <path d="M150 374h210" stroke="#FFFFFF" stroke-width="6" stroke-linecap="round"/>
    <circle cx="206" cy="250" r="10" fill="#FFFFFF"/><circle cx="300" cy="250" r="10" fill="#FFFFFF"/><circle cx="252" cy="316" r="10" fill="#FFFFFF"/>
  </g>
  <path id="label" d="M306.14,381.66 L311.31,390.61 L305.86,393.76 L292.27,370.22 L297.72,367.08 L299.16,369.57 Q299.43,367.43 300.39,365.93 Q301.35,364.44 303.13,363.41 Q306.28,361.59 309.75,362.92 Q313.22,364.26 315.50,368.20 Q317.77,372.14 317.20,375.82 Q316.62,379.49 313.47,381.31 Q311.69,382.34 309.91,382.42 Q308.13,382.50 306.14,381.66 Z M303.39,368.53 Q301.64,369.54 301.44,371.37 Q301.25,373.20 302.65,375.62 Q304.05,378.04 305.72,378.79 Q307.41,379.53 309.16,378.52 Q310.90,377.51 311.09,375.70 Q311.27,373.89 309.87,371.45 Q308.46,369.01 306.80,368.27 Q305.14,367.52 303.39,368.53 Z M312.35,358.63 L317.80,355.48 L329.06,364.41 L326.28,350.59 L331.73,347.44 L335.33,370.25 Q335.90,373.72 335.11,375.68 Q334.33,377.64 331.97,379.01 L328.82,380.83 L326.75,377.25 L328.46,376.27 Q329.84,375.47 330.22,374.66 Q330.60,373.86 330.29,372.51 L330.17,371.95 L312.35,358.63 Z M337.37,352.00 L346.92,346.48 L349.48,350.91 L339.92,356.43 L337.37,352.00 Z M361.48,330.98 L363.87,335.12 Q361.70,335.40 359.85,335.97 Q358.02,336.55 356.57,337.38 Q355.01,338.28 354.48,339.10 Q353.96,339.93 354.42,340.73 Q354.80,341.39 355.58,341.41 Q356.35,341.43 357.92,340.75 L358.96,340.33 Q363.45,338.44 365.60,338.83 Q367.75,339.21 369.25,341.81 Q370.83,344.54 369.61,347.07 Q368.39,349.60 364.41,351.90 Q362.72,352.88 360.75,353.65 Q358.80,354.42 356.59,354.99 L354.19,350.85 Q356.28,350.70 358.22,350.11 Q360.17,349.52 361.93,348.50 Q363.53,347.57 364.08,346.67 Q364.63,345.76 364.13,344.89 Q363.71,344.16 362.95,344.12 Q362.19,344.09 360.41,344.85 L359.38,345.28 Q355.48,346.92 353.31,346.53 Q351.13,346.14 349.68,343.63 Q348.12,340.92 349.22,338.55 Q350.32,336.16 354.16,333.95 Q355.67,333.08 357.46,332.35 Q359.25,331.61 361.48,330.98 Z M380.49,320.00 L383.06,324.44 Q381.51,324.33 380.18,324.61 Q378.85,324.89 377.64,325.58 Q375.36,326.90 374.86,328.96 Q374.36,331.03 375.74,333.42 Q377.12,335.81 379.16,336.41 Q381.20,337.01 383.48,335.69 Q384.76,334.95 385.69,333.91 Q386.62,332.86 387.16,331.55 L389.74,336.01 Q388.73,337.23 387.55,338.22 Q386.37,339.22 385.05,339.98 Q380.43,342.65 376.46,341.78 Q372.49,340.92 370.06,336.70 Q367.62,332.48 368.86,328.62 Q370.10,324.74 374.71,322.08 Q376.05,321.31 377.49,320.79 Q378.92,320.27 380.49,320.00 Z M398.97,309.33 L401.54,313.77 Q399.99,313.66 398.66,313.94 Q397.33,314.22 396.12,314.91 Q393.85,316.23 393.34,318.29 Q392.84,320.36 394.22,322.75 Q395.60,325.14 397.64,325.74 Q399.68,326.34 401.96,325.02 Q403.24,324.28 404.17,323.24 Q405.10,322.19 405.64,320.88 L408.22,325.34 Q407.21,326.56 406.03,327.55 Q404.85,328.55 403.53,329.31 Q398.92,331.98 394.94,331.11 Q390.97,330.25 388.54,326.03 Q386.10,321.81 387.34,317.95 Q388.58,314.07 393.19,311.41 Q394.53,310.64 395.97,310.12 Q397.40,309.60 398.97,309.33 Z M416.41,301.88 L411.14,292.74 L416.62,289.58 L430.29,313.27 L424.81,316.43 L423.39,313.97 Q423.13,316.12 422.18,317.61 Q421.23,319.09 419.45,320.12 Q416.30,321.94 412.83,320.61 Q409.36,319.26 407.08,315.32 Q404.81,311.38 405.38,307.71 Q405.96,304.04 409.12,302.22 Q410.88,301.20 412.65,301.12 Q414.42,301.04 416.41,301.88 Z M419.19,314.99 Q420.94,313.98 421.12,312.17 Q421.31,310.36 419.90,307.92 Q418.49,305.49 416.84,304.74 Q415.18,303.99 413.42,305.01 Q411.69,306.01 411.51,307.82 Q411.32,309.63 412.73,312.06 Q414.14,314.50 415.80,315.25 Q417.45,315.99 419.19,314.99 Z M439.77,285.77 L442.34,290.22 Q440.79,290.10 439.46,290.38 Q438.13,290.66 436.92,291.36 Q434.64,292.68 434.14,294.74 Q433.64,296.80 435.02,299.20 Q436.40,301.59 438.44,302.19 Q440.48,302.78 442.76,301.47 Q444.04,300.73 444.97,299.68 Q445.90,298.64 446.44,297.33 L449.02,301.79 Q448.01,303.00 446.83,304.00 Q445.65,304.99 444.33,305.76 Q439.71,308.42 435.74,307.56 Q431.77,306.69 429.34,302.47 Q426.90,298.26 428.14,294.39 Q429.38,290.52 433.99,287.86 Q435.33,287.08 436.77,286.57 Q438.20,286.05 439.77,285.77 Z" fill="#FFFFFF"/>
</svg>
